<svg xmlns="http://www.w3.org/2000/svg" xmlns:android="http://schemas.android.com/apk/res/android" width="900dp" height="900dp" viewportWidth="900" viewportHeight="900">
	<path fill="#9B5DE5" d="M89.06,783.16 C74.78,779.37 64.41,767.96 61.24,752.57 60.26,747.84 60.12,728.28 60.12,600.24 60.12,438.2 59.86,447.33 64.72,437.36 68.88,428.83 77.23,422.26 87.23,419.66 92.21,418.36 104.79,418.17 109.75,419.31 125.03,422.83 135.6,436.82 136.75,455.08 136.93,457.84 137.23,460.26 137.42,460.45 137.61,460.64 140.13,458.21 143,455.04 159.77,436.56 179.89,424.84 204.46,419.24 219.75,415.75 245.99,416.64 261.72,421.19 284.57,427.79 305.86,443.49 319.83,464.09 L322.31,467.74 L325.28,464.09 C331.21,456.8 344.13,444.68 351.57,439.41 365.47,429.57 381.03,422.84 398.49,419.11 405.34,417.65 408.43,417.45 424.09,417.46 444.03,417.48 450.04,418.35 465.27,423.41 509.72,438.18 536.06,475.98 540.95,532.03 541.4,537.22 541.7,581.24 541.7,644.51 541.71,744.82 541.66,748.66 540.28,754.07 534.66,776.03 516,787.69 493.1,783.52 478.23,780.81 466.51,768.42 463.01,751.72 462.41,748.84 462.14,719.49 462.06,649 461.95,559.09 461.83,549.65 460.67,543.46 457.02,523.98 449.19,508.7 438.77,500.68 424.9,490.02 407.79,486.83 388.45,491.3 365.1,496.69 348.88,514.68 343.25,541.39 340.99,552.12 340.64,568.55 340.74,659.36 340.84,748.45 340.83,749.18 339.28,754.94 337.14,762.9 334.48,767.57 328.79,773.32 321.18,781.02 312.64,784.38 300.71,784.38 294.11,784.38 287.88,782.96 282.05,780.14 276.47,777.44 268.91,769.63 265.84,763.39 261.14,753.84 261.31,757.89 261.03,650 260.84,578.73 260.52,550.18 259.88,546.02 255.05,514.83 241.42,497.24 217.11,490.83 209.66,488.87 194.8,489.05 186.68,491.21 175.8,494.1 167.76,498.61 160.23,506.14 150.32,516.05 144.97,526.97 141.53,544.33 139.93,552.41 139.91,553.54 139.5,652.65 L139.08,752.82 L137.33,757.64 C132.55,770.75 122.8,779.87 110.02,783.19 104.46,784.63 94.48,784.62 89.02,783.17 Z M614.49,543.81 C606.44,542.51 599.69,537.15 596.12,529.21 594.74,526.14 594.17,523.06 593.58,515.48 592,493.06 587.03,474.72 577.37,455.16 560.96,421.91 534.2,395.27 500.65,378.78 477.92,367.61 458.28,362.62 432.38,361.44 421.87,360.96 419.15,360.6 416.11,359.25 410.26,356.66 406.39,353 403.67,347.48 401.53,343.13 401.23,341.8 401.22,336.54 401.21,331.27 401.5,329.97 403.64,325.63 406.42,319.98 409.77,316.72 415.65,313.97 419.59,312.12 420.27,312.04 431.63,312.16 472.93,312.59 516.13,326.86 552.18,351.99 605.33,389.03 639.1,447.39 644.28,511.16 645.39,524.76 643.73,530.5 636.74,537.31 631.12,542.79 623.12,545.14 614.7,543.79 Z M730.46,543.94 C722.7,542.3 715.99,537.03 712.64,529.95 710.89,526.25 710.57,524.25 709.67,511.31 709.11,503.34 708.31,494.14 707.88,490.85 703.01,453.87 690.63,418.51 671.38,386.6 668.3,381.5 665.88,377.22 665.99,377.09 666.11,376.96 667.82,377.67 669.8,378.67 671.78,379.67 676.24,381.43 679.71,382.58 685.53,384.51 686.9,384.67 697.52,384.68 708.59,384.68 709.28,384.59 716.07,382.25 719.95,380.91 723.54,379.64 724.06,379.43 724.69,379.17 726.49,382.1 729.38,388.15 746.14,423.25 756.45,462.24 759.9,503.59 761.58,523.67 760,530.56 752.05,537.83 746.22,543.15 737.94,545.48 730.46,543.91 Z M845.41,543.93 C834.33,541.61 826.5,531.89 825.54,519.27 825.34,516.71 824.99,509.81 824.75,503.93 822.99,460.37 807.25,400 787.29,360.27 L783.72,353.16 L785.69,353.6 C786.78,353.84 791.17,354.58 795.46,355.25 807.85,357.18 821.05,355.18 832.77,349.6 837.85,347.19 836.77,346 842.6,360.41 862.27,409.07 873.11,457.82 875.98,510.58 876.67,523.27 875,529.7 869.27,536.4 864.2,542.32 853.52,545.7 845.36,543.99 Z M685.35,359.84 C676.84,356.91 671.52,352.5 668.01,345.44 659.57,328.48 672.14,307.06 695.04,299.37 700.64,297.49 706.71,296.93 714.95,297.54 L719.4,297.87 L719.77,248.57 C720.11,203.28 720.25,199.02 721.47,196.32 723.77,191.22 727.44,188.26 734.24,186.03 738.4,184.67 765.34,177.31 787.3,171.54 795.26,169.45 808.95,165.84 817.72,163.53 826.75,161.15 835.19,159.34 837.17,159.36 841.47,159.4 844.98,161.34 847.01,164.79 848.49,167.31 848.52,168.51 848.72,230.98 848.9,286.45 848.77,295.24 847.77,299.59 844.64,313.06 832.75,325.22 818.15,329.91 799.24,335.98 781.51,330.45 774.55,316.32 766.92,300.82 776.1,281.68 795.65,272.41 803.39,268.74 807.63,267.87 817.73,267.87 H825.86 L825.86,238.92 L825.86,209.95 L824.04,208.13 C821.25,205.34 822.11,205.19 788.77,214.26 780.4,216.52 768.05,219.85 761.31,221.67 754.58,223.49 748,225.51 746.69,226.17 741.9,228.57 742.01,227.32 741.99,278.85 741.98,308.32 741.69,326.71 741.2,328.82 739.71,335.31 736.01,341.55 730.17,347.45 725.56,352.1 723.33,353.69 717.52,356.46 713.64,358.31 708.9,360.19 706.99,360.64 701.23,362 690.34,361.63 685.33,359.91 Z M629.97,333.17 C615.49,318.66 606.6,310.85 594.44,301.95 564.93,280.34 528.32,262.99 494.55,254.63 474.6,249.69 456.84,247.25 435.19,246.47 420.66,245.95 419.33,245.78 415.44,244 401.09,237.42 396.47,221.17 405.1,207.6 407.86,203.26 413.67,199.4 419.87,197.8 426.67,196.04 455.04,197.5 476.39,200.7 534.91,209.49 587.89,232.87 635.16,270.77 646.81,280.11 659.67,292 659.67,293.43 659.67,293.92 658.8,295.14 657.74,296.13 654.55,299.09 649.5,306.61 646.75,312.46 642.25,322.06 640.9,332.51 642.92,342.07 643.48,344.72 643.89,346.89 643.83,346.89 643.77,346.89 637.55,340.7 629.99,333.14 Z M623.65,230.95 C601.15,223.17 596.72,199.56 614.43,181.84 619.31,176.95 625.9,172.89 633.32,170.19 636.21,169.14 639.24,168.85 647.22,168.85 L657.42,168.85 L657.42,114.47 C657.42,62.54 657.48,59.96 658.83,57.32 660.7,53.66 665.33,51.06 670,51.06 675.66,51.06 678.53,52.91 682.81,59.31 688.7,68.13 694.37,74.76 700.82,80.39 724.57,101.08 730.14,110.12 730.14,128.02 730.14,136.29 728.87,142.02 725.36,149.54 722.5,155.68 719.77,158.81 717.28,158.81 714.22,158.81 713.82,157.45 713.86,147.24 713.89,140.57 713.55,136.5 712.74,133.86 711.05,128.3 706.26,121.6 700.59,116.87 694.97,112.18 682.29,105.47 681.17,106.59 680.73,107.03 680.38,125.19 680.26,153.29 L680.06,199.27 L678.05,204.29 C675.43,210.83 672.72,214.66 666.91,220.09 661.66,225 653.8,229.26 646.57,231.1 640.33,232.69 628.51,232.6 623.67,230.93 Z M585.82,165.54 C578.55,162.11 559.37,154.84 546.86,150.78 511.39,139.27 477.85,133.5 438.52,132.15 428.52,131.81 419.23,131.18 417.87,130.75 411.29,128.68 406.03,124.07 402.84,117.58 400.3,112.41 400.26,102.2 402.77,97.1 405.16,92.26 409.72,87.81 414.67,85.49 418.67,83.61 419.53,83.51 432.97,83.27 476.16,82.51 526.46,91.17 573.21,107.41 596.41,115.47 629.16,129.83 632.92,133.59 634.17,134.84 634.43,136.06 634.43,140.55 L634.43,146 L628.36,147.62 C618.19,150.34 606.26,157.04 597.6,164.88 595.4,166.87 593.19,168.47 592.68,168.43 592.17,168.39 589.09,167.1 585.83,165.56 Z"/>
</svg>
